<svg xmlns="http://www.w3.org/2000/svg" xmlns:xlink="http://www.w3.org/1999/xlink" version="1.1" viewBox="2.07 2.6 44.81 54.81">
<g id="surface1">
<path style=" stroke:none;fill-rule:nonzero;fill:rgb(100%,24.313725%,0%);fill-opacity:1;" d="M 44.019531 9.847656 C 39.019531 2.566406 29.140625 0.40625 22.003906 5.035156 L 9.460938 13.171875 C 8.617188 13.710938 7.832031 14.339844 7.117188 15.042969 C 6.398438 15.75 5.757812 16.53125 5.199219 17.371094 C 4.640625 18.210938 4.171875 19.109375 3.792969 20.046875 C 3.417969 20.988281 3.140625 21.964844 2.960938 22.964844 C 2.8125 23.800781 2.734375 24.648438 2.722656 25.5 C 2.710938 26.351562 2.769531 27.203125 2.894531 28.042969 C 3.023438 28.886719 3.21875 29.714844 3.476562 30.523438 C 3.738281 31.332031 4.0625 32.117188 4.453125 32.871094 C 4.183594 33.285156 3.9375 33.710938 3.714844 34.148438 C 3.488281 34.585938 3.285156 35.035156 3.105469 35.496094 C 2.925781 35.957031 2.765625 36.421875 2.632812 36.898438 C 2.5 37.375 2.390625 37.855469 2.304688 38.34375 C 1.945312 40.390625 1.992188 42.488281 2.441406 44.515625 C 2.667969 45.527344 2.988281 46.515625 3.40625 47.460938 C 3.824219 48.40625 4.332031 49.308594 4.925781 50.152344 C 9.925781 57.433594 19.800781 59.59375 26.941406 54.964844 L 39.480469 46.863281 C 40.324219 46.320312 41.109375 45.691406 41.824219 44.984375 C 42.539062 44.28125 43.183594 43.5 43.742188 42.660156 C 44.296875 41.820312 44.769531 40.921875 45.144531 39.984375 C 45.523438 39.046875 45.800781 38.070312 45.980469 37.070312 C 46.128906 36.234375 46.207031 35.386719 46.21875 34.535156 C 46.230469 33.683594 46.171875 32.832031 46.042969 31.992188 C 45.917969 31.152344 45.722656 30.324219 45.460938 29.515625 C 45.199219 28.707031 44.875 27.921875 44.484375 27.167969 C 44.753906 26.753906 45 26.328125 45.226562 25.890625 C 45.449219 25.453125 45.652344 25 45.835938 24.542969 C 46.015625 24.082031 46.171875 23.613281 46.308594 23.140625 C 46.441406 22.664062 46.554688 22.183594 46.640625 21.695312 C 46.816406 20.675781 46.894531 19.636719 46.871094 18.601562 C 46.847656 17.566406 46.722656 16.535156 46.5 15.523438 C 46.273438 14.511719 45.953125 13.527344 45.535156 12.578125 C 45.117188 11.632812 44.609375 10.730469 44.019531 9.886719 "/>
<path style=" stroke:none;fill-rule:nonzero;fill:rgb(100%,100%,100%);fill-opacity:1;" d="M 20.777344 50.855469 C 19.796875 51.113281 18.78125 51.21875 17.769531 51.167969 C 16.753906 51.117188 15.757812 50.90625 14.804688 50.546875 C 13.855469 50.1875 12.964844 49.683594 12.164062 49.050781 C 11.363281 48.417969 10.660156 47.664062 10.082031 46.816406 C 9.726562 46.308594 9.421875 45.769531 9.171875 45.199219 C 8.921875 44.628906 8.726562 44.039062 8.59375 43.429688 C 8.457031 42.820312 8.382812 42.203125 8.371094 41.578125 C 8.355469 40.957031 8.402344 40.332031 8.511719 39.71875 C 8.527344 39.617188 8.546875 39.519531 8.570312 39.421875 C 8.589844 39.320312 8.613281 39.222656 8.640625 39.125 C 8.664062 39.027344 8.691406 38.925781 8.71875 38.828125 C 8.746094 38.734375 8.777344 38.636719 8.808594 38.539062 L 9.042969 37.804688 L 9.6875 38.292969 C 10.058594 38.570312 10.4375 38.828125 10.828125 39.070312 C 11.222656 39.3125 11.621094 39.535156 12.03125 39.742188 C 12.441406 39.949219 12.859375 40.140625 13.285156 40.3125 C 13.707031 40.484375 14.140625 40.636719 14.578125 40.773438 L 15.058594 40.914062 L 15.015625 41.402344 C 14.992188 41.734375 15.027344 42.070312 15.117188 42.390625 C 15.160156 42.554688 15.21875 42.707031 15.289062 42.859375 C 15.359375 43.007812 15.445312 43.152344 15.539062 43.289062 C 15.714844 43.542969 15.925781 43.769531 16.167969 43.960938 C 16.410156 44.148438 16.675781 44.300781 16.964844 44.410156 C 17.25 44.519531 17.550781 44.578125 17.855469 44.59375 C 18.160156 44.613281 18.464844 44.578125 18.761719 44.5 C 18.828125 44.484375 18.894531 44.460938 18.960938 44.4375 C 19.03125 44.414062 19.09375 44.390625 19.160156 44.359375 C 19.222656 44.332031 19.285156 44.300781 19.347656 44.265625 C 19.410156 44.234375 19.472656 44.199219 19.53125 44.160156 L 32.050781 36.023438 C 32.203125 35.925781 32.347656 35.8125 32.476562 35.683594 C 32.609375 35.554688 32.722656 35.410156 32.824219 35.257812 C 32.925781 35.105469 33.011719 34.941406 33.078125 34.773438 C 33.148438 34.601562 33.199219 34.421875 33.230469 34.242188 C 33.261719 34.054688 33.273438 33.867188 33.269531 33.679688 C 33.265625 33.492188 33.242188 33.304688 33.199219 33.121094 C 33.160156 32.9375 33.101562 32.761719 33.023438 32.589844 C 32.949219 32.417969 32.855469 32.253906 32.75 32.101562 C 32.574219 31.847656 32.363281 31.621094 32.121094 31.429688 C 31.878906 31.242188 31.609375 31.089844 31.324219 30.980469 C 31.039062 30.871094 30.738281 30.808594 30.433594 30.792969 C 30.128906 30.777344 29.824219 30.808594 29.527344 30.886719 C 29.460938 30.90625 29.390625 30.925781 29.324219 30.953125 C 29.257812 30.976562 29.195312 31 29.128906 31.027344 C 29.066406 31.058594 29.003906 31.089844 28.941406 31.125 C 28.878906 31.15625 28.816406 31.191406 28.757812 31.230469 L 23.949219 34.339844 C 23.753906 34.464844 23.550781 34.585938 23.347656 34.695312 C 23.140625 34.808594 22.933594 34.910156 22.722656 35.003906 C 22.507812 35.101562 22.292969 35.1875 22.070312 35.265625 C 21.851562 35.34375 21.632812 35.414062 21.40625 35.476562 C 20.425781 35.734375 19.414062 35.835938 18.402344 35.785156 C 17.390625 35.730469 16.394531 35.523438 15.449219 35.164062 C 14.5 34.804688 13.609375 34.300781 12.808594 33.671875 C 12.011719 33.039062 11.308594 32.289062 10.730469 31.441406 C 10.378906 30.933594 10.074219 30.390625 9.824219 29.824219 C 9.574219 29.253906 9.382812 28.660156 9.246094 28.054688 C 9.113281 27.445312 9.039062 26.824219 9.027344 26.203125 C 9.011719 25.578125 9.0625 24.957031 9.167969 24.34375 C 9.382812 23.136719 9.839844 21.988281 10.511719 20.972656 C 11.183594 19.957031 12.058594 19.09375 13.078125 18.441406 L 25.636719 10.304688 C 25.832031 10.179688 26.03125 10.058594 26.234375 9.949219 C 26.441406 9.835938 26.648438 9.734375 26.859375 9.636719 C 27.070312 9.542969 27.285156 9.457031 27.503906 9.378906 C 27.722656 9.300781 27.941406 9.230469 28.167969 9.167969 C 29.148438 8.910156 30.160156 8.804688 31.171875 8.855469 C 32.1875 8.910156 33.183594 9.117188 34.132812 9.476562 C 35.085938 9.835938 35.976562 10.339844 36.777344 10.972656 C 37.578125 11.605469 38.277344 12.359375 38.855469 13.207031 C 39.210938 13.714844 39.519531 14.253906 39.769531 14.824219 C 40.019531 15.394531 40.214844 15.984375 40.347656 16.59375 C 40.484375 17.203125 40.558594 17.820312 40.574219 18.445312 C 40.585938 19.066406 40.539062 19.691406 40.433594 20.304688 C 40.414062 20.40625 40.394531 20.507812 40.371094 20.605469 C 40.347656 20.707031 40.324219 20.804688 40.300781 20.902344 C 40.277344 21.003906 40.25 21.101562 40.222656 21.199219 C 40.195312 21.300781 40.164062 21.398438 40.132812 21.496094 L 39.894531 22.230469 L 39.253906 21.738281 C 38.882812 21.460938 38.503906 21.203125 38.109375 20.957031 C 37.71875 20.714844 37.316406 20.488281 36.90625 20.277344 C 36.085938 19.859375 35.230469 19.515625 34.351562 19.242188 L 33.867188 19.101562 L 33.914062 18.613281 C 33.925781 18.445312 33.925781 18.277344 33.910156 18.109375 C 33.894531 17.941406 33.867188 17.777344 33.824219 17.617188 C 33.777344 17.453125 33.722656 17.296875 33.652344 17.144531 C 33.582031 16.992188 33.496094 16.847656 33.402344 16.710938 C 33.226562 16.460938 33.015625 16.238281 32.773438 16.054688 C 32.535156 15.867188 32.265625 15.71875 31.980469 15.613281 C 31.410156 15.402344 30.789062 15.375 30.199219 15.53125 C 30.132812 15.550781 30.066406 15.570312 30 15.59375 C 29.933594 15.617188 29.867188 15.644531 29.800781 15.671875 C 29.738281 15.703125 29.675781 15.734375 29.613281 15.765625 C 29.550781 15.800781 29.488281 15.835938 29.429688 15.875 L 16.886719 23.996094 C 16.734375 24.09375 16.589844 24.207031 16.460938 24.335938 C 16.332031 24.464844 16.214844 24.605469 16.113281 24.757812 C 16.011719 24.910156 15.929688 25.074219 15.859375 25.242188 C 15.792969 25.414062 15.742188 25.589844 15.707031 25.773438 C 15.675781 25.957031 15.664062 26.148438 15.667969 26.335938 C 15.679688 26.710938 15.761719 27.082031 15.914062 27.429688 C 15.988281 27.601562 16.082031 27.761719 16.191406 27.917969 C 16.363281 28.167969 16.574219 28.394531 16.8125 28.582031 C 17.050781 28.773438 17.320312 28.921875 17.601562 29.03125 C 18.175781 29.246094 18.796875 29.28125 19.386719 29.132812 C 19.453125 29.113281 19.523438 29.089844 19.589844 29.066406 C 19.652344 29.042969 19.71875 29.015625 19.785156 28.988281 C 19.847656 28.960938 19.910156 28.929688 19.972656 28.894531 C 20.035156 28.863281 20.097656 28.828125 20.15625 28.789062 L 24.964844 25.683594 C 25.160156 25.558594 25.359375 25.4375 25.566406 25.324219 C 25.773438 25.210938 25.980469 25.109375 26.195312 25.011719 C 26.40625 24.917969 26.625 24.832031 26.84375 24.753906 C 27.0625 24.675781 27.289062 24.605469 27.511719 24.542969 C 28.492188 24.285156 29.507812 24.179688 30.519531 24.230469 C 31.53125 24.28125 32.53125 24.488281 33.480469 24.847656 C 34.429688 25.207031 35.320312 25.710938 36.121094 26.34375 C 36.921875 26.976562 37.625 27.730469 38.203125 28.578125 C 38.558594 29.085938 38.863281 29.625 39.113281 30.195312 C 39.363281 30.765625 39.558594 31.355469 39.695312 31.964844 C 39.828125 32.574219 39.902344 33.191406 39.917969 33.816406 C 39.933594 34.441406 39.886719 35.0625 39.777344 35.675781 C 39.671875 36.277344 39.503906 36.867188 39.28125 37.433594 C 39.054688 38 38.769531 38.539062 38.433594 39.046875 C 38.101562 39.554688 37.714844 40.023438 37.28125 40.449219 C 36.851562 40.875 36.378906 41.253906 35.871094 41.578125 L 23.324219 49.714844 C 23.128906 49.84375 22.925781 49.960938 22.722656 50.074219 C 22.515625 50.183594 22.304688 50.289062 22.09375 50.382812 C 21.878906 50.480469 21.664062 50.566406 21.441406 50.644531 C 21.222656 50.722656 21 50.792969 20.777344 50.855469 "/>
</g>
</svg>