<svg xmlns="http://www.w3.org/2000/svg" xmlns:xlink="http://www.w3.org/1999/xlink" version="1.1" viewBox="0 0 46.85 59.88">
<g id="surface1">
<path style=" stroke:none;fill-rule:nonzero;fill:rgb(16.862745%,66.27451%,46.666667%);fill-opacity:1;" d="M 21.074219 0 L 30.855469 0 L 30.855469 44.9375 C 25.84375 45.890625 22.15625 46.261719 18.164062 46.261719 C 6.21875 46.25 0 40.898438 0 30.625 C 0 20.726562 6.597656 14.300781 16.820312 14.300781 C 18.40625 14.300781 19.613281 14.425781 21.074219 14.800781 Z M 21.417969 22.898438 C 20.269531 22.523438 19.328125 22.398438 18.117188 22.398438 C 13.171875 22.398438 10.3125 25.421875 10.3125 30.722656 C 10.3125 35.886719 13.046875 38.734375 18.054688 38.734375 C 19.136719 38.734375 20.019531 38.675781 21.417969 38.488281 Z M 21.417969 22.898438 "/>
<path style=" stroke:none;fill-rule:nonzero;fill:rgb(16.862745%,66.27451%,46.666667%);fill-opacity:1;" d="M 46.851562 15.507812 L 46.851562 38.007812 C 46.851562 45.753906 46.273438 49.480469 44.570312 52.695312 C 42.984375 55.78125 40.894531 57.730469 36.578125 59.882812 L 27.5 55.59375 C 31.820312 53.582031 33.910156 51.804688 35.242188 49.09375 C 36.640625 46.320312 37.082031 43.105469 37.082031 34.65625 L 37.082031 15.507812 Z M 36.097656 0 L 45.878906 0 L 45.878906 9.960938 L 36.097656 9.960938 Z M 36.097656 0 "/>
</g>
</svg>