<svg xmlns="http://www.w3.org/2000/svg" xmlns:xlink="http://www.w3.org/1999/xlink" version="1.1" viewBox="0.04 0.02 59.85 59.78">
<defs>
<linearGradient id="linear0" gradientUnits="userSpaceOnUse" x1="0.12959" y1="0.12039" x2="0.79639" y2="0.78201" gradientTransform="matrix(44.359375,0,0,44.660156,0.0351563,0.015625)">
<stop offset="0" style="stop-color:rgb(21.960784%,49.411765%,72.156863%);stop-opacity:1;"/>
<stop offset="1" style="stop-color:rgb(21.176471%,41.176471%,58.039216%);stop-opacity:1;"/>
</linearGradient>
<linearGradient id="linear1" gradientUnits="userSpaceOnUse" x1="0.19128" y1="0.20579" x2="0.90742" y2="0.88429" gradientTransform="matrix(44.359375,0,0,44.65625,15.523438,15.136719)">
<stop offset="0" style="stop-color:rgb(100%,87.843137%,32.156863%);stop-opacity:1;"/>
<stop offset="1" style="stop-color:rgb(100%,76.470588%,19.215686%);stop-opacity:1;"/>
</linearGradient>
</defs>
<g id="surface1">
<path style=" stroke:none;fill-rule:nonzero;fill:url(#linear0);" d="M 29.742188 0.015625 C 14.550781 0.015625 15.5 6.632812 15.5 6.632812 L 15.515625 13.484375 L 30.015625 13.484375 L 30.015625 15.542969 L 9.757812 15.542969 C 9.757812 15.542969 0.0351562 14.4375 0.0351562 29.828125 C 0.0351562 45.21875 8.519531 44.675781 8.519531 44.675781 L 13.585938 44.675781 L 13.585938 37.53125 C 13.585938 37.53125 13.3125 29.011719 21.933594 29.011719 L 36.316406 29.011719 C 36.316406 29.011719 44.394531 29.144531 44.394531 21.171875 L 44.394531 7.992188 C 44.394531 7.992188 45.621094 0.015625 29.742188 0.015625 Z M 21.75 4.625 C 22.441406 4.625 23.105469 4.902344 23.59375 5.390625 C 24.082031 5.882812 24.355469 6.550781 24.355469 7.246094 C 24.355469 7.9375 24.082031 8.605469 23.59375 9.097656 C 23.105469 9.589844 22.441406 9.863281 21.75 9.863281 C 21.054688 9.863281 20.394531 9.589844 19.902344 9.097656 C 19.414062 8.605469 19.140625 7.9375 19.140625 7.246094 C 19.140625 6.550781 19.414062 5.882812 19.902344 5.390625 C 20.394531 4.902344 21.054688 4.625 21.75 4.625 Z M 21.75 4.625 "/>
<path style=" stroke:none;fill-rule:nonzero;fill:url(#linear1);" d="M 30.175781 59.792969 C 45.367188 59.792969 44.417969 53.179688 44.417969 53.179688 L 44.402344 46.324219 L 29.902344 46.324219 L 29.902344 44.269531 L 50.160156 44.269531 C 50.160156 44.269531 59.882812 45.375 59.882812 29.984375 C 59.882812 14.589844 51.398438 15.136719 51.398438 15.136719 L 46.332031 15.136719 L 46.332031 22.277344 C 46.332031 22.277344 46.605469 30.800781 37.984375 30.800781 L 23.601562 30.800781 C 23.601562 30.800781 15.523438 30.667969 15.523438 38.640625 L 15.523438 51.820312 C 15.523438 51.820312 14.296875 59.792969 30.175781 59.792969 Z M 38.167969 55.1875 C 37.476562 55.1875 36.8125 54.910156 36.324219 54.417969 C 35.835938 53.929688 35.558594 53.261719 35.5625 52.566406 C 35.558594 51.871094 35.835938 51.207031 36.324219 50.714844 C 36.8125 50.222656 37.476562 49.949219 38.167969 49.949219 C 38.859375 49.949219 39.523438 50.222656 40.015625 50.714844 C 40.503906 51.207031 40.777344 51.871094 40.777344 52.566406 C 40.777344 53.261719 40.503906 53.929688 40.015625 54.417969 C 39.523438 54.910156 38.859375 55.1875 38.167969 55.1875 Z M 38.167969 55.1875 "/>
</g>
</svg>