<svg xmlns="http://www.w3.org/2000/svg" xmlns:xlink="http://www.w3.org/1999/xlink" version="1.1" viewBox="0 6.55 52 46.89">
<g id="surface1">
<path style=" stroke:none;fill-rule:nonzero;fill:rgb(38.039216%,85.490196%,98.431373%);fill-opacity:1;" d="M 52 30.003906 C 52 26.515625 47.6875 23.210938 41.070312 21.160156 C 42.597656 14.335938 41.921875 8.90625 38.929688 7.164062 C 38.242188 6.757812 37.4375 6.566406 36.558594 6.566406 L 36.558594 8.957031 C 37.042969 8.957031 37.4375 9.054688 37.765625 9.238281 C 39.207031 10.074219 39.832031 13.261719 39.34375 17.363281 C 39.226562 18.371094 39.035156 19.433594 38.804688 20.515625 C 36.726562 20.003906 34.457031 19.605469 32.074219 19.347656 C 30.640625 17.363281 29.160156 15.558594 27.664062 13.980469 C 31.121094 10.730469 34.363281 8.945312 36.566406 8.945312 L 36.566406 6.554688 C 33.652344 6.554688 29.835938 8.65625 25.980469 12.308594 C 22.121094 8.679688 18.304688 6.597656 15.390625 6.597656 L 15.390625 8.988281 C 17.585938 8.988281 20.839844 10.761719 24.292969 13.992188 C 22.808594 15.570312 21.324219 17.363281 19.917969 19.347656 C 17.519531 19.605469 15.253906 20.003906 13.175781 20.527344 C 12.929688 19.453125 12.75 18.414062 12.625 17.414062 C 12.125 13.316406 12.742188 10.128906 14.171875 9.28125 C 14.488281 9.085938 14.902344 9 15.390625 9 L 15.390625 6.609375 C 14.5 6.609375 13.695312 6.800781 12.996094 7.207031 C 10.015625 8.945312 9.347656 14.367188 10.886719 21.171875 C 4.292969 23.234375 0 26.527344 0 30.003906 C 0 33.492188 4.3125 36.800781 10.929688 38.847656 C 9.402344 45.675781 10.078125 51.105469 13.070312 52.84375 C 13.757812 53.253906 14.5625 53.445312 15.453125 53.445312 C 18.367188 53.445312 22.183594 51.34375 26.042969 47.691406 C 29.902344 51.320312 33.714844 53.402344 36.632812 53.402344 C 37.519531 53.402344 38.328125 53.210938 39.027344 52.800781 C 42.003906 51.0625 42.671875 45.644531 41.136719 38.839844 C 47.707031 36.789062 52 33.484375 52 30.003906 Z M 38.199219 22.847656 C 37.808594 24.230469 37.320312 25.660156 36.769531 27.085938 C 36.335938 26.226562 35.878906 25.367188 35.378906 24.511719 C 34.894531 23.652344 34.375 22.8125 33.855469 22 C 35.359375 22.222656 36.8125 22.503906 38.199219 22.847656 Z M 33.34375 34.277344 C 32.519531 35.726562 31.671875 37.101562 30.789062 38.378906 C 29.210938 38.515625 27.609375 38.589844 26 38.589844 C 24.398438 38.589844 22.800781 38.515625 21.230469 38.386719 C 20.351562 37.109375 19.492188 35.746094 18.664062 34.308594 C 17.859375 32.902344 17.128906 31.476562 16.460938 30.039062 C 17.117188 28.597656 17.859375 27.160156 18.65625 25.753906 C 19.480469 24.304688 20.328125 22.933594 21.210938 21.65625 C 22.789062 21.515625 24.390625 21.441406 26 21.441406 C 27.601562 21.441406 29.199219 21.515625 30.769531 21.644531 C 31.648438 22.921875 32.507812 24.285156 33.335938 25.722656 C 34.140625 27.128906 34.871094 28.554688 35.539062 29.996094 C 34.871094 31.433594 34.140625 32.871094 33.34375 34.277344 Z M 36.769531 32.882812 C 37.339844 34.320312 37.828125 35.757812 38.230469 37.152344 C 36.84375 37.496094 35.378906 37.785156 33.863281 38.011719 C 34.382812 37.1875 34.902344 36.335938 35.390625 35.46875 C 35.878906 34.609375 36.335938 33.742188 36.769531 32.882812 Z M 26.019531 44.332031 C 25.035156 43.304688 24.050781 42.15625 23.074219 40.898438 C 24.027344 40.941406 25.003906 40.972656 25.988281 40.972656 C 26.984375 40.972656 27.972656 40.953125 28.9375 40.898438 C 27.980469 42.15625 26.996094 43.304688 26.019531 44.332031 Z M 18.136719 38.011719 C 16.628906 37.785156 15.179688 37.507812 13.789062 37.164062 C 14.183594 35.78125 14.667969 34.351562 15.21875 32.925781 C 15.65625 33.785156 16.109375 34.640625 16.609375 35.5 C 17.105469 36.359375 17.617188 37.195312 18.136719 38.011719 Z M 25.96875 15.675781 C 26.953125 16.707031 27.941406 17.855469 28.914062 19.113281 C 27.960938 19.070312 26.984375 19.035156 26 19.035156 C 25.003906 19.035156 24.019531 19.058594 23.054688 19.113281 C 24.007812 17.855469 24.992188 16.707031 25.96875 15.675781 Z M 18.125 22 C 17.605469 22.824219 17.085938 23.671875 16.597656 24.542969 C 16.109375 25.402344 15.65625 26.257812 15.21875 27.117188 C 14.648438 25.679688 14.160156 24.242188 13.757812 22.847656 C 15.144531 22.515625 16.609375 22.222656 18.125 22 Z M 8.53125 35.4375 C 4.78125 33.816406 2.351562 31.691406 2.351562 30.003906 C 2.351562 28.320312 4.78125 26.183594 8.53125 24.574219 C 9.445312 24.175781 10.441406 23.824219 11.46875 23.492188 C 12.074219 25.59375 12.867188 27.785156 13.851562 30.027344 C 12.878906 32.257812 12.09375 34.4375 11.5 36.53125 C 10.449219 36.199219 9.453125 35.832031 8.53125 35.4375 Z M 14.234375 50.773438 C 12.792969 49.9375 12.167969 46.75 12.65625 42.648438 C 12.773438 41.640625 12.964844 40.578125 13.195312 39.492188 C 15.273438 40.007812 17.542969 40.40625 19.925781 40.664062 C 21.359375 42.648438 22.839844 44.453125 24.335938 46.03125 C 20.878906 49.28125 17.636719 51.0625 15.433594 51.0625 C 14.957031 51.054688 14.554688 50.957031 14.234375 50.773438 Z M 39.375 42.59375 C 39.875 46.695312 39.257812 49.882812 37.828125 50.730469 C 37.511719 50.925781 37.097656 51.011719 36.609375 51.011719 C 34.414062 51.011719 31.160156 49.238281 27.707031 46.007812 C 29.191406 44.429688 30.675781 42.636719 32.082031 40.652344 C 34.480469 40.394531 36.746094 39.996094 38.824219 39.472656 C 39.070312 40.554688 39.257812 41.597656 39.375 42.59375 Z M 43.457031 35.4375 C 42.546875 35.832031 41.550781 36.1875 40.519531 36.519531 C 39.917969 34.417969 39.121094 32.226562 38.136719 29.984375 C 39.109375 27.75 39.894531 25.574219 40.488281 23.480469 C 41.539062 23.8125 42.535156 24.175781 43.46875 24.574219 C 47.21875 26.195312 49.648438 28.320312 49.648438 30.003906 C 49.636719 31.691406 47.210938 33.828125 43.457031 35.4375 Z M 43.457031 35.4375 "/>
<path style=" stroke:none;fill-rule:nonzero;fill:rgb(38.039216%,85.490196%,98.431373%);fill-opacity:1;" d="M 30.832031 30.003906 C 30.832031 32.714844 28.664062 34.910156 25.988281 34.910156 C 23.3125 34.910156 21.144531 32.714844 21.144531 30.003906 C 21.144531 27.296875 23.3125 25.101562 25.988281 25.101562 C 28.664062 25.101562 30.832031 27.296875 30.832031 30.003906 Z M 30.832031 30.003906 "/>
</g>
</svg>