<svg xmlns="http://www.w3.org/2000/svg" version="1.1" viewBox="75.08 45.1 278.8 266.32">
<g id="#f06546ff">
</g>
<g id="#fdfefdff">
<path fill="#fdfefd" opacity="1.00" d=" M 204.20 52.24 C 206.08 48.90 208.87 45.30 213.09 45.21 C 217.57 44.53 221.92 47.06 223.96 51.02 C 235.90 72.05 248.12 92.93 260.15 113.92 C 261.78 116.54 262.80 119.76 265.26 121.72 C 269.41 123.39 273.94 123.71 278.27 124.73 C 300.49 129.69 322.86 133.95 345.07 138.92 C 349.81 139.77 354.21 143.91 353.85 148.99 C 354.23 153.27 351.08 156.53 348.45 159.46 C 332.84 176.53 317.48 193.81 301.92 210.91 C 299.93 213.24 297.33 215.27 296.27 218.22 C 296.00 222.77 296.97 227.28 297.38 231.79 C 299.75 253.19 302.02 274.60 304.16 296.02 C 304.36 298.92 304.78 301.94 303.86 304.77 C 302.23 308.98 297.61 312.14 293.03 311.27 C 288.63 310.43 284.73 308.11 280.68 306.34 C 262.42 298.29 244.24 290.09 225.99 282.02 C 222.07 280.42 218.39 277.80 214.12 277.31 C 209.21 278.45 204.89 281.24 200.28 283.18 C 180.16 292.04 160.09 301.01 140.01 309.94 C 136.36 311.63 131.80 311.98 128.44 309.45 C 124.76 306.96 124.16 302.11 124.64 298.02 C 127.89 267.22 143.10 236.80 168.99 219.00 C 177.80 212.81 187.67 208.22 197.87 204.86 C 201.44 203.78 205.40 202.53 209.05 203.99 C 212.56 205.32 214.15 209.00 216.14 211.91 C 220.42 206.89 224.25 201.51 228.34 196.34 C 231.59 192.08 235.25 188.10 237.91 183.42 C 226.68 179.97 215.43 176.44 203.95 173.88 C 203.82 176.75 203.86 179.67 203.30 182.50 C 202.20 185.83 198.80 187.60 195.75 188.83 C 177.65 195.72 157.54 197.31 138.59 193.25 C 114.69 187.97 93.32 173.96 77.29 155.70 C 72.81 150.46 75.47 140.95 82.42 139.45 C 105.05 134.11 127.94 129.91 150.61 124.73 C 154.92 123.65 159.47 123.37 163.60 121.65 C 165.92 119.49 167.20 116.49 168.79 113.80 C 180.50 93.23 192.49 72.82 204.20 52.24 M 212.08 80.02 C 202.64 96.85 192.67 113.38 183.22 130.21 C 180.98 134.09 178.60 138.37 174.34 140.34 C 169.51 142.49 164.15 142.87 159.06 144.09 C 147.54 146.73 135.96 149.02 124.40 151.44 C 118.68 152.67 112.82 153.49 107.39 155.77 C 119.40 165.55 134.09 172.07 149.42 174.33 C 158.80 175.05 168.44 175.21 177.62 172.79 C 178.78 172.23 180.77 172.39 181.17 170.89 C 181.01 166.55 179.30 162.41 179.29 158.05 C 179.13 152.89 183.82 148.04 189.02 148.26 C 192.88 148.36 196.55 149.72 200.21 150.79 C 219.73 156.83 239.53 161.90 259.01 168.02 C 263.92 169.38 267.09 174.86 265.84 179.80 C 264.80 183.89 261.72 186.98 259.23 190.25 C 246.76 206.13 234.48 222.16 222.06 238.08 C 218.90 242.79 211.86 244.43 207.35 240.69 C 203.16 236.92 202.23 230.97 199.05 226.48 C 174.21 235.17 154.64 257.40 148.95 283.05 C 151.15 282.29 153.37 281.56 155.48 280.57 C 171.54 273.21 187.81 266.31 203.83 258.86 C 207.08 257.42 210.40 255.87 214.01 255.69 C 217.41 255.58 220.61 256.96 223.68 258.28 C 241.36 266.39 259.25 274.04 276.91 282.18 C 278.48 282.85 280.11 283.35 281.71 283.97 C 281.75 277.56 280.78 271.23 280.06 264.89 C 278.44 251.51 277.18 238.09 275.63 224.71 C 275.31 220.02 274.58 215.17 275.76 210.54 C 277.67 205.90 281.72 202.66 284.90 198.92 C 297.61 184.52 310.77 170.50 323.23 155.89 C 321.09 155.28 318.97 154.61 316.80 154.16 C 299.52 150.54 282.25 146.90 264.99 143.17 C 259.74 142.02 253.66 141.44 249.98 137.02 C 246.27 132.49 243.95 127.03 240.91 122.07 C 232.06 107.06 223.70 91.76 214.60 76.91 C 213.77 77.95 212.80 78.89 212.08 80.02 Z"/>
<path fill="#fdfefd" opacity="1.00" d=" M 108.20 200.05 C 116.45 203.86 125.02 207.01 133.85 209.15 C 139.29 210.45 144.88 210.88 150.35 211.99 C 147.01 215.77 143.17 219.07 139.83 222.84 C 133.35 230.16 127.56 238.14 123.33 246.98 C 123.49 240.11 124.15 233.14 122.74 226.36 C 120.51 216.43 115.34 207.28 108.20 200.05 Z"/>
</g>
</svg>